<svg xmlns="http://www.w3.org/2000/svg" viewBox="0 0 48 48"><title>Browsing (hand holding smartphone)</title><g id="Browsing_hand_holding_smartphone_" data-name="Browsing (hand holding smartphone)"><path d="M15.29,4.71a1,1,0,1,0,1.09-1.63A1,1,0,0,0,15.29,4.71Z"/><path d="M47.71,43.29c-7.52-7.51-7.66-7.35-7.66-8.48.1-12.27-9.3-12.07-6.79-24.89A3,3,0,0,0,28.8,6.74c-.29.17-.55.36-.8.54V4a4,4,0,0,0-4-4H8A4,4,0,0,0,4,4v9c-4.07,0-5,4-2.94,6a3.48,3.48,0,0,0,0,5,3.48,3.48,0,0,0,0,5C-1,31-.08,35,4,35v1a4,4,0,0,0,4,4h6.25a12.94,12.94,0,0,0,8.59,5c5.17.86,6.26,2.46,6.27,2.46a1,1,0,0,0,1.78-.9c-.2-.41-1.54-2.51-7.73-3.54a11.49,11.49,0,0,1-6.27-3H24a4,4,0,0,0,4-4V10a9.18,9.18,0,0,1,1.83-1.49,1,1,0,0,1,1.46,1.07c-2.73,14,6.86,13.71,6.76,25.27,0,2.22.85,2.51,8.24,9.91A1,1,0,0,0,47.71,43.29ZM7.94,29a3.48,3.48,0,0,0,0-5,3.48,3.48,0,0,0,0-5A3.49,3.49,0,0,0,6,13.05V6h6.4a4.26,4.26,0,0,0,7.2,0H26V33H8.65A3.45,3.45,0,0,0,7.94,29ZM8,2H24a2,2,0,0,1,2,2c-7.48,0-7.57-.21-7.92.61a2.26,2.26,0,0,1-4.16,0C13.57,3.79,13.54,4,6,4A2,2,0,0,1,8,2ZM3.5,15h2a1.5,1.5,0,0,1,0,3h-2A1.5,1.5,0,0,1,3.5,15Zm0,5h2a1.5,1.5,0,0,1,0,3h-2A1.5,1.5,0,0,1,3.5,20Zm0,5h2a1.5,1.5,0,0,1,0,3h-2A1.5,1.5,0,0,1,3.5,25Zm0,5h2a1.5,1.5,0,0,1,0,3h-2A1.5,1.5,0,0,1,3.5,30ZM24,38H8a2,2,0,0,1-2-2V35H26v1A2,2,0,0,1,24,38Z"/><path d="M11,13h8a1,1,0,0,0,0-2H11A1,1,0,0,0,11,13Z"/><path d="M11,17H23a1,1,0,0,0,0-2H11A1,1,0,0,0,11,17Z"/><path d="M11,21H23a1,1,0,0,0,0-2H11A1,1,0,0,0,11,21Z"/><path d="M11,25H23a1,1,0,0,0,0-2H11A1,1,0,0,0,11,25Z"/><path d="M11,29H23a1,1,0,0,0,0-2H11A1,1,0,0,0,11,29Z"/></g></svg>